<svg xmlns="http://www.w3.org/2000/svg" xmlns:xlink="http://www.w3.org/1999/xlink" width="500" zoomAndPan="magnify" viewBox="0 0 375 374.999991" height="500" preserveAspectRatio="xMidYMid meet" version="1.0"><defs><g/><clipPath id="id1"><path d="M 66 94 L 184 94 L 184 175 L 66 175 Z M 66 94 " clip-rule="nonzero"/></clipPath><clipPath id="id2"><path d="M 57.445312 111.300781 L 174.980469 77.675781 L 193.542969 142.570312 L 76.011719 176.195312 Z M 57.445312 111.300781 " clip-rule="nonzero"/></clipPath><clipPath id="id3"><path d="M 57.445312 111.300781 L 174.980469 77.675781 L 193.542969 142.570312 L 76.011719 176.195312 Z M 57.445312 111.300781 " clip-rule="nonzero"/></clipPath></defs><g clip-path="url(#id1)"><g clip-path="url(#id2)"><g clip-path="url(#id3)"><path fill="#f08700" d="M 152.222656 117.296875 C 147.207031 115.558594 139.171875 111.921875 122.542969 116.675781 L 122.34375 116.734375 C 105.714844 121.492188 100.820312 128.828125 97.480469 132.957031 C 94.144531 137.097656 93.328125 132.707031 93.328125 132.707031 C 93.328125 132.707031 95.328125 119.839844 121.121094 112.460938 L 121.320312 112.402344 C 147.113281 105.023438 155.617188 114.886719 155.617188 114.886719 C 155.617188 114.886719 157.242188 119.046875 152.222656 117.296875 Z M 116.132812 94.511719 L 66.003906 140.808594 L 76.191406 141.011719 L 82.308594 162.773438 L 80.871094 167.328125 L 82.847656 174.242188 L 89.613281 172.304688 L 87.632812 165.390625 L 84.046875 162.355469 L 78 141.039062 L 96.457031 141.355469 L 98.8125 149.066406 C 98.8125 149.066406 108.292969 135.367188 126.34375 130.203125 C 144.386719 125.042969 159.816406 131.621094 159.816406 131.621094 L 157.738281 123.832031 L 183.296875 107.261719 L 116.132812 94.511719 " fill-opacity="1" fill-rule="nonzero"/></g></g></g><g fill="#00c4cc" fill-opacity="1"><g transform="translate(80.58833, 214.83081)"><g><path d="M 32.175781 -45.507812 C 33.269531 -45.785156 34.191406 -46.320312 35.09375 -46.996094 C 35.929688 -47.664062 36.597656 -48.519531 37.171875 -49.578125 C 38.191406 -51.609375 38.160156 -54.144531 37.226562 -57.132812 C 36.203125 -56.300781 35.183594 -55.960938 34.335938 -56 C 33.414062 -56.027344 32.675781 -56.289062 32.105469 -56.921875 C 31.472656 -57.476562 31.023438 -58.269531 30.761719 -59.222656 C 30.503906 -60.179688 30.453125 -61.160156 30.59375 -62.304688 C 30.960938 -64.464844 31.816406 -66.125 33.230469 -67.214844 C 34.648438 -68.308594 36.246094 -69.066406 38.035156 -69.429688 C 39.824219 -69.792969 41.699219 -70.023438 43.53125 -70.039062 C 45.300781 -69.976562 47.082031 -69.84375 48.800781 -69.632812 C 50.515625 -69.421875 52.175781 -69.132812 53.773438 -68.765625 C 54.5 -68.574219 55.230469 -68.378906 55.886719 -68.179688 C 56.546875 -67.980469 57.199219 -67.847656 57.859375 -67.648438 C 58.449219 -67.4375 59.117188 -67.167969 59.777344 -66.96875 C 60.375 -66.6875 61.113281 -66.425781 61.925781 -66.105469 C 62.671875 -65.773438 63.488281 -65.453125 64.304688 -65.128906 C 65.121094 -64.808594 65.925781 -64.554688 66.804688 -64.308594 C 68.496094 -63.742188 70.238281 -63.324219 72.035156 -63.050781 C 73.761719 -62.773438 75.453125 -62.769531 76.964844 -63.097656 C 78.214844 -63.25 79.363281 -63.675781 80.265625 -64.351562 C 81.179688 -64.957031 81.933594 -65.683594 82.527344 -66.605469 C 83.058594 -67.445312 83.441406 -68.339844 83.597656 -69.347656 C 83.765625 -70.28125 83.78125 -71.273438 83.664062 -72.246094 C 83.492188 -73.070312 83.179688 -73.878906 82.730469 -74.667969 C 82.277344 -75.457031 81.691406 -76.230469 80.96875 -76.917969 C 80.191406 -77.527344 79.339844 -78.128906 78.289062 -78.632812 C 77.25 -79.070312 76.148438 -79.425781 74.855469 -79.617188 C 75.058594 -77.953125 75.074219 -76.683594 74.78125 -75.660156 C 74.484375 -74.636719 74.019531 -73.804688 73.386719 -73.230469 C 72.761719 -72.589844 71.96875 -72.140625 71.015625 -71.882812 C 70.058594 -71.621094 69.097656 -71.433594 68.105469 -71.453125 C 66.710938 -71.351562 65.371094 -71.324219 64.085938 -71.449219 C 62.742188 -71.496094 61.457031 -71.617188 60.234375 -71.820312 L 52.847656 -72.8125 C 50.417969 -73.074219 47.9375 -73.191406 45.472656 -73.167969 C 43.003906 -73.148438 40.367188 -72.820312 37.5 -72.042969 C 35.589844 -71.527344 33.707031 -70.800781 31.839844 -69.933594 C 29.96875 -69.070312 28.328125 -68.089844 26.84375 -66.988281 C 25.296875 -65.8125 23.984375 -64.449219 22.886719 -63.046875 C 21.800781 -61.574219 21.148438 -60.011719 20.796875 -58.273438 C 20.457031 -56.46875 20.46875 -54.640625 20.902344 -52.859375 C 21.265625 -51.070312 22.015625 -49.542969 23.023438 -48.253906 C 24.035156 -46.898438 25.285156 -45.925781 26.835938 -45.339844 C 28.320312 -44.75 30.144531 -44.832031 32.175781 -45.507812 Z M 13.308594 -1.855469 C 15.550781 -1.992188 17.632812 -2.8125 19.570312 -4.25 C 21.507812 -5.6875 23.394531 -7.542969 25.230469 -9.816406 C 27.074219 -12.015625 28.734375 -14.550781 30.355469 -17.429688 C 31.980469 -20.238281 33.59375 -23.1875 35.183594 -26.277344 C 36.039062 -27.933594 36.996094 -29.882812 38.074219 -31.992188 C 39.15625 -34.097656 40.296875 -36.285156 41.558594 -38.628906 L 43.394531 -42.027344 C 44.839844 -44.601562 46.351562 -47.1875 47.867188 -49.773438 C 49.382812 -52.355469 50.859375 -54.65625 52.363281 -56.746094 C 53.808594 -58.757812 55.15625 -60.402344 56.546875 -61.703125 C 57.867188 -62.996094 59.042969 -63.773438 60.136719 -64.050781 C 58.800781 -65.15625 57.359375 -65.398438 55.882812 -64.792969 C 54.335938 -64.179688 52.652344 -62.984375 50.75 -61.269531 C 50.183594 -60.707031 49.453125 -59.769531 48.488281 -58.453125 C 47.53125 -57.0625 46.382812 -55.511719 45.199219 -53.671875 C 43.945312 -51.828125 42.570312 -49.824219 41.144531 -47.671875 C 39.71875 -45.523438 38.222656 -43.363281 36.726562 -41.203125 L 34.265625 -37.726562 C 33.167969 -36.320312 32.140625 -34.925781 31.097656 -33.667969 C 30.054688 -32.410156 29.074219 -31.234375 28.132812 -30.269531 C 26.828125 -28.839844 25.578125 -27.558594 24.308594 -26.414062 C 23.046875 -25.199219 21.761719 -24.195312 20.527344 -23.335938 C 19.234375 -22.402344 18.050781 -21.691406 16.914062 -21.199219 C 15.777344 -20.707031 14.75 -20.4375 13.761719 -20.457031 C 12.78125 -20.40625 11.835938 -20.640625 11.003906 -21.101562 C 10.171875 -21.5625 9.503906 -22.398438 9 -23.605469 C 8.4375 -24.734375 8.109375 -26.246094 7.949219 -28.128906 C 7.796875 -29.945312 7.929688 -32.289062 8.359375 -35.089844 C 6.492188 -34.226562 4.867188 -33.109375 3.632812 -31.6875 C 2.328125 -30.257812 1.25 -28.710938 0.402344 -26.988281 C -0.5 -25.183594 -1.121094 -23.34375 -1.445312 -21.398438 C -1.828125 -19.378906 -1.945312 -17.460938 -1.859375 -15.636719 C -1.757812 -13.675781 -1.378906 -11.746094 -0.742188 -9.992188 C -0.101562 -8.238281 0.792969 -6.726562 2.074219 -5.472656 C 3.296875 -4.144531 4.832031 -3.136719 6.671875 -2.515625 C 8.519531 -1.828125 10.730469 -1.609375 13.308594 -1.855469 Z M 13.308594 -1.855469 "/></g></g></g><g fill="#00c4cc" fill-opacity="1"><g transform="translate(125.452276, 209.289733)"><g><path d="M 7.851562 -26.636719 L -5.929688 0.519531 L 3.65625 -0.664062 L 14.863281 -24.683594 C 15.644531 -26.332031 16.785156 -27.953125 18.203125 -29.609375 C 18.578125 -30.007812 19.070312 -30.5625 19.757812 -31.28125 C 20.453125 -31.929688 21.210938 -32.660156 22.113281 -33.335938 C 22.949219 -34 23.800781 -34.53125 24.652344 -35.058594 C 25.503906 -35.585938 26.3125 -35.898438 27.144531 -36 C 27.917969 -36.027344 28.585938 -35.753906 29.070312 -35.25 C 29.5625 -34.679688 29.890625 -33.730469 30.0625 -32.34375 C 30.148438 -31.648438 29.941406 -31.058594 29.523438 -30.441406 C 29.105469 -29.828125 28.59375 -29.410156 27.933594 -29.046875 C 27.273438 -28.683594 26.535156 -28.378906 25.699219 -28.277344 C 24.867188 -28.175781 24.078125 -28.289062 23.332031 -28.621094 C 23.050781 -27.457031 22.953125 -26.527344 23.039062 -25.832031 C 23.125 -25.140625 23.414062 -24.539062 23.8125 -24.164062 C 24.148438 -23.714844 24.609375 -23.417969 25.121094 -23.269531 C 25.632812 -23.121094 26.136719 -23.042969 26.691406 -23.109375 C 27.957031 -23.125 29.042969 -23.472656 30.070312 -24.304688 C 31.027344 -25.128906 31.816406 -26.140625 32.503906 -27.425781 C 33.132812 -28.632812 33.601562 -29.957031 33.847656 -31.398438 C 34.09375 -32.839844 34.136719 -34.183594 33.976562 -35.503906 C 33.75 -36.746094 33.328125 -37.894531 32.710938 -38.875 C 32.027344 -39.847656 31.101562 -40.507812 29.9375 -40.789062 C 28.785156 -41 27.535156 -40.84375 26.324219 -40.34375 C 25.128906 -39.769531 23.9375 -39.128906 22.84375 -38.289062 C 21.6875 -37.371094 20.609375 -36.390625 19.601562 -35.421875 C 18.601562 -34.382812 17.792969 -33.507812 17.105469 -32.785156 C 17.253906 -34.425781 17.082031 -35.816406 16.660156 -36.960938 C 16.246094 -38.039062 15.457031 -38.71875 14.371094 -38.9375 C 13.511719 -39.042969 12.480469 -38.84375 11.269531 -38.34375 C 10.0625 -37.839844 8.621094 -36.957031 7.015625 -35.699219 C 7.679688 -34.867188 8.121094 -34.144531 8.488281 -33.484375 C 8.851562 -32.824219 9.003906 -32.140625 9.089844 -31.445312 C 9.109375 -30.742188 8.992188 -29.953125 8.800781 -29.222656 C 8.546875 -28.414062 8.234375 -27.53125 7.851562 -26.636719 Z M 6.9375 -35.761719 L 6.824219 -35.535156 L 7.015625 -35.699219 Z M 6.9375 -35.761719 "/></g></g></g><g fill="#00c4cc" fill-opacity="1"><g transform="translate(155.801197, 205.541385)"><g><path d="M 20.097656 -42.816406 C 20.835938 -42.554688 21.84375 -42.960938 22.980469 -44.019531 C 23.484375 -44.503906 24.042969 -45.136719 24.511719 -45.898438 C 24.980469 -46.664062 25.449219 -47.425781 25.835938 -48.320312 C 26.21875 -49.214844 26.539062 -50.027344 26.785156 -50.90625 C 26.960938 -51.773438 27.140625 -52.570312 27.1875 -53.351562 C 27.214844 -54.835938 26.824219 -55.707031 26.089844 -55.96875 C 25.28125 -56.21875 24.34375 -55.820312 23.203125 -54.765625 C 22.074219 -53.636719 21.125 -52.179688 20.289062 -50.386719 L 20.28125 -50.453125 C 19.828125 -49.554688 19.515625 -48.667969 19.339844 -47.800781 C 19.097656 -46.925781 18.980469 -46.132812 18.988281 -45.5 C 18.9375 -44.789062 19.015625 -44.164062 19.214844 -43.695312 C 19.410156 -43.226562 19.664062 -42.902344 20.097656 -42.816406 Z M 1 -0.476562 C 2.160156 -0.195312 3.558594 -0.296875 5.332031 -0.800781 C 7.101562 -1.300781 8.953125 -2.304688 10.960938 -3.75 C 12.90625 -5.121094 14.941406 -6.921875 16.914062 -9.210938 C 18.898438 -11.429688 20.808594 -14.207031 22.535156 -17.378906 C 22.039062 -16.824219 21.414062 -16.183594 20.59375 -15.378906 C 19.707031 -14.5625 18.8125 -13.816406 17.839844 -13.132812 C 16.804688 -12.371094 15.824219 -11.757812 14.832031 -11.210938 C 13.773438 -10.65625 12.898438 -10.335938 12.195312 -10.320312 C 11.082031 -10.183594 10.40625 -10.523438 10.304688 -11.355469 C 10.207031 -12.121094 10.304688 -13.046875 10.730469 -14.160156 C 11.097656 -15.191406 11.542969 -16.164062 12.117188 -17.222656 C 12.621094 -18.269531 13.03125 -18.957031 13.257812 -19.40625 L 24.269531 -39.875 L 14.476562 -38.667969 L 0.75 -13.914062 C -0.398438 -11.796875 -1.226562 -9.933594 -1.671875 -8.394531 C -2.109375 -6.792969 -2.300781 -5.496094 -2.171875 -4.457031 C -2.105469 -3.335938 -1.777344 -2.390625 -1.203125 -1.753906 C -0.632812 -1.121094 0.132812 -0.652344 1 -0.476562 Z M 1 -0.476562 "/></g></g></g><g fill="#00c4cc" fill-opacity="1"><g transform="translate(174.34364, 203.251236)"><g><path d="M 5.269531 -0.722656 C 6.484375 -1.152344 7.605469 -1.785156 8.625 -2.6875 C 9.648438 -3.519531 10.578125 -4.550781 11.421875 -5.710938 C 12.273438 -6.804688 13.058594 -7.886719 13.839844 -8.972656 C 14.554688 -10.046875 15.441406 -11.425781 16.363281 -13.09375 C 17.226562 -14.679688 18.078125 -16.335938 19 -18 C 19.925781 -19.667969 20.785156 -21.253906 21.585938 -22.761719 C 21.917969 -23.507812 22.257812 -24.183594 22.605469 -24.792969 C 22.953125 -25.398438 23.25 -25.859375 23.546875 -26.320312 L 24.871094 -25.285156 L 24.894531 -28.53125 C 26.042969 -30.648438 26.949219 -32.449219 27.53125 -34.003906 C 28.054688 -35.480469 28.386719 -36.789062 28.535156 -37.863281 C 28.625 -38.863281 28.519531 -39.695312 28.3125 -40.234375 C 28.035156 -40.765625 27.644531 -41.070312 27.210938 -41.15625 C 26.570312 -41.21875 25.894531 -40.992188 25.121094 -40.40625 C 24.347656 -39.816406 23.675781 -38.957031 23.117188 -37.761719 C 22.492188 -36.554688 22.117188 -35.027344 21.90625 -33.308594 C 21.695312 -31.589844 21.945312 -29.578125 22.566406 -27.398438 C 22.453125 -27.171875 22.347656 -26.875 22.175781 -26.574219 C 21.929688 -26.261719 21.703125 -25.808594 21.476562 -25.359375 C 20.902344 -24.300781 20.199219 -23.15625 19.511719 -21.871094 C 18.761719 -20.511719 17.945312 -19.140625 17.066406 -17.691406 C 16.125 -16.164062 15.300781 -14.863281 14.457031 -13.703125 C 13.613281 -12.539062 12.804688 -11.664062 12.109375 -11.015625 C 11.351562 -10.285156 10.742188 -10.070312 10.292969 -10.296875 L 10.285156 -10.367188 C 9.851562 -10.453125 9.644531 -10.992188 9.816406 -11.859375 C 9.929688 -12.648438 10.238281 -13.605469 10.65625 -14.785156 C 11.082031 -15.894531 11.628906 -17.160156 12.300781 -18.582031 L 14.3125 -22.851562 L 16.28125 -26.902344 C 16.558594 -27.5 16.835938 -28.097656 17.046875 -28.691406 C 17.257812 -29.28125 17.40625 -29.792969 17.621094 -30.3125 C 17.832031 -30.902344 17.960938 -31.550781 18.015625 -32.265625 C 18.070312 -32.976562 18.050781 -33.679688 17.964844 -34.375 C 17.882812 -35.066406 17.664062 -35.675781 17.371094 -36.34375 C 17.085938 -36.945312 16.667969 -37.457031 16.191406 -37.890625 C 14.945312 -38.867188 12.949219 -39.042969 10.34375 -38.4375 C 10.722656 -37.640625 11.027344 -36.902344 11.113281 -36.207031 C 11.257812 -35.027344 10.976562 -33.863281 10.265625 -32.789062 C 9.847656 -32.171875 9.4375 -31.488281 8.976562 -30.65625 L -0.96875 -12.996094 C -1.214844 -12.683594 -1.398438 -12.449219 -1.5 -12.15625 C -1.675781 -11.851562 -1.847656 -11.546875 -2.023438 -11.242188 C -2.355469 -10.496094 -2.738281 -9.605469 -3.035156 -8.582031 C -3.332031 -7.558594 -3.488281 -6.550781 -3.378906 -5.648438 C -3.214844 -3.761719 -2.410156 -2.382812 -1.023438 -1.425781 C -0.398438 -0.9375 0.554688 -0.632812 1.71875 -0.351562 C 2.882812 -0.0742188 4.0625 -0.21875 5.269531 -0.722656 Z M 5.269531 -0.722656 "/></g></g></g><g fill="#00c4cc" fill-opacity="1"><g transform="translate(198.094826, 200.317764)"><g><path d="M 20.097656 -42.816406 C 20.835938 -42.554688 21.84375 -42.960938 22.980469 -44.019531 C 23.484375 -44.503906 24.042969 -45.136719 24.511719 -45.898438 C 24.980469 -46.664062 25.449219 -47.425781 25.835938 -48.320312 C 26.21875 -49.214844 26.539062 -50.027344 26.785156 -50.90625 C 26.960938 -51.773438 27.140625 -52.570312 27.1875 -53.351562 C 27.214844 -54.835938 26.824219 -55.707031 26.089844 -55.96875 C 25.28125 -56.21875 24.34375 -55.820312 23.203125 -54.765625 C 22.074219 -53.636719 21.125 -52.179688 20.289062 -50.386719 L 20.28125 -50.453125 C 19.828125 -49.554688 19.515625 -48.667969 19.339844 -47.800781 C 19.097656 -46.925781 18.980469 -46.132812 18.988281 -45.5 C 18.9375 -44.789062 19.015625 -44.164062 19.214844 -43.695312 C 19.410156 -43.226562 19.664062 -42.902344 20.097656 -42.816406 Z M 1 -0.476562 C 2.160156 -0.195312 3.558594 -0.296875 5.332031 -0.800781 C 7.101562 -1.300781 8.953125 -2.304688 10.960938 -3.75 C 12.90625 -5.121094 14.941406 -6.921875 16.914062 -9.210938 C 18.898438 -11.429688 20.808594 -14.207031 22.535156 -17.378906 C 22.039062 -16.824219 21.414062 -16.183594 20.59375 -15.378906 C 19.707031 -14.5625 18.8125 -13.816406 17.839844 -13.132812 C 16.804688 -12.371094 15.824219 -11.757812 14.832031 -11.210938 C 13.773438 -10.65625 12.898438 -10.335938 12.195312 -10.320312 C 11.082031 -10.183594 10.40625 -10.523438 10.304688 -11.355469 C 10.207031 -12.121094 10.304688 -13.046875 10.730469 -14.160156 C 11.097656 -15.191406 11.542969 -16.164062 12.117188 -17.222656 C 12.621094 -18.269531 13.03125 -18.957031 13.257812 -19.40625 L 24.269531 -39.875 L 14.476562 -38.667969 L 0.75 -13.914062 C -0.398438 -11.796875 -1.226562 -9.933594 -1.671875 -8.394531 C -2.109375 -6.792969 -2.300781 -5.496094 -2.171875 -4.457031 C -2.105469 -3.335938 -1.777344 -2.390625 -1.203125 -1.753906 C -0.632812 -1.121094 0.132812 -0.652344 1 -0.476562 Z M 1 -0.476562 "/></g></g></g><g fill="#00c4cc" fill-opacity="1"><g transform="translate(216.63727, 198.027615)"><g><path d="M 22.078125 -3.363281 L 21.828125 -3.117188 C 23.773438 -3.359375 25.648438 -4.15625 27.515625 -5.585938 C 29.324219 -6.9375 31.089844 -8.632812 32.679688 -10.59375 C 34.210938 -12.476562 35.574219 -14.546875 36.863281 -16.679688 C 38.152344 -18.816406 39.171875 -20.84375 39.9375 -22.632812 C 39.816406 -22.476562 39.683594 -22.390625 39.492188 -22.222656 C 39.300781 -22.058594 39.121094 -21.824219 38.867188 -21.582031 C 38.3125 -20.949219 37.683594 -20.308594 36.988281 -19.660156 C 36.304688 -18.9375 35.546875 -18.210938 34.722656 -17.472656 C 32.957031 -15.777344 31.488281 -14.535156 30.167969 -13.808594 C 29.515625 -13.375 28.96875 -13.238281 28.605469 -13.335938 C 28.238281 -13.429688 28.117188 -13.839844 28.242188 -14.558594 C 28.292969 -15.269531 28.78125 -16.460938 29.582031 -17.96875 L 42.160156 -42.296875 L 32.367188 -41.089844 L 28.710938 -34.148438 C 28.542969 -35.539062 28.195312 -36.625 27.589844 -37.535156 C 26.992188 -38.378906 26.28125 -38.996094 25.378906 -39.449219 C 24.414062 -39.824219 23.339844 -39.972656 22.210938 -39.976562 C 21.089844 -39.90625 19.859375 -39.613281 18.640625 -39.183594 C 17.703125 -38.785156 16.644531 -38.230469 15.550781 -37.390625 C 14.453125 -36.550781 13.367188 -35.640625 12.238281 -34.511719 C 11.109375 -33.386719 9.925781 -32.113281 8.761719 -30.699219 C 7.59375 -29.285156 6.5 -27.878906 5.421875 -26.335938 C 4.097656 -24.480469 2.914062 -22.644531 1.878906 -20.75 C 0.78125 -18.78125 -0.113281 -16.910156 -0.871094 -15.054688 C -1.410156 -13.71875 -1.855469 -12.179688 -2.066406 -10.460938 C -2.277344 -8.746094 -2.296875 -7.191406 -1.980469 -5.75 C -1.722656 -4.230469 -1.148438 -3.03125 -0.328125 -2.074219 C 0.496094 -1.117188 1.746094 -0.710938 3.480469 -0.921875 C 5.84375 -1.214844 8.285156 -2.011719 10.648438 -3.429688 C 11.769531 -4.0625 12.800781 -4.824219 13.757812 -5.648438 C 14.714844 -6.472656 15.515625 -7.417969 16.097656 -8.40625 C 16.15625 -6.789062 16.734375 -5.523438 17.84375 -4.53125 C 18.886719 -3.53125 20.273438 -3.136719 22.078125 -3.363281 Z M 9.390625 -10.75 C 8.722656 -11.019531 8.238281 -11.523438 7.925781 -12.332031 C 7.613281 -13.140625 7.625 -14.199219 7.878906 -15.570312 C 8.070312 -16.863281 8.585938 -18.40625 9.472656 -20.351562 C 10.371094 -22.222656 11.648438 -24.425781 13.3125 -26.957031 C 14.023438 -28.035156 14.738281 -29.109375 15.589844 -30.203125 C 16.375 -31.285156 17.242188 -32.238281 18.113281 -33.191406 C 18.921875 -34.070312 19.816406 -34.8125 20.804688 -35.359375 C 21.726562 -35.894531 22.753906 -36.164062 23.863281 -36.300781 C 24.496094 -36.308594 25.007812 -36.160156 25.398438 -35.855469 C 25.730469 -35.472656 25.996094 -35.011719 26.214844 -34.40625 C 26.359375 -33.789062 26.445312 -33.09375 26.410156 -32.242188 C 26.375 -31.394531 26.335938 -30.542969 26.171875 -29.605469 L 26.242188 -29.613281 L 20.253906 -18.71875 C 19.800781 -17.816406 19.148438 -16.820312 18.433594 -15.746094 C 17.652344 -14.660156 16.789062 -13.636719 15.84375 -12.746094 C 14.835938 -11.773438 13.792969 -11.082031 12.714844 -10.667969 C 11.578125 -10.171875 10.449219 -10.175781 9.390625 -10.75 Z M 9.390625 -10.75 "/></g></g></g><g fill="#5ce1e6" fill-opacity="1"><g transform="translate(82.14456, 213.698442)"><g><path d="M 32.175781 -45.507812 C 33.269531 -45.785156 34.191406 -46.320312 35.09375 -46.996094 C 35.929688 -47.664062 36.597656 -48.519531 37.171875 -49.578125 C 38.191406 -51.609375 38.160156 -54.144531 37.226562 -57.132812 C 36.203125 -56.300781 35.183594 -55.960938 34.335938 -56 C 33.414062 -56.027344 32.675781 -56.289062 32.105469 -56.921875 C 31.472656 -57.476562 31.023438 -58.269531 30.761719 -59.222656 C 30.503906 -60.179688 30.453125 -61.160156 30.59375 -62.304688 C 30.960938 -64.464844 31.816406 -66.125 33.230469 -67.214844 C 34.648438 -68.308594 36.246094 -69.066406 38.035156 -69.429688 C 39.824219 -69.792969 41.699219 -70.023438 43.53125 -70.039062 C 45.300781 -69.976562 47.082031 -69.84375 48.800781 -69.632812 C 50.515625 -69.421875 52.175781 -69.132812 53.773438 -68.765625 C 54.5 -68.574219 55.230469 -68.378906 55.886719 -68.179688 C 56.546875 -67.980469 57.199219 -67.847656 57.859375 -67.648438 C 58.449219 -67.4375 59.117188 -67.167969 59.777344 -66.96875 C 60.375 -66.6875 61.113281 -66.425781 61.925781 -66.105469 C 62.671875 -65.773438 63.488281 -65.453125 64.304688 -65.128906 C 65.121094 -64.808594 65.925781 -64.554688 66.804688 -64.308594 C 68.496094 -63.742188 70.238281 -63.324219 72.035156 -63.050781 C 73.761719 -62.773438 75.453125 -62.769531 76.964844 -63.097656 C 78.214844 -63.25 79.363281 -63.675781 80.265625 -64.351562 C 81.179688 -64.957031 81.933594 -65.683594 82.527344 -66.605469 C 83.058594 -67.445312 83.441406 -68.339844 83.597656 -69.347656 C 83.765625 -70.28125 83.78125 -71.273438 83.664062 -72.246094 C 83.492188 -73.070312 83.179688 -73.878906 82.730469 -74.667969 C 82.277344 -75.457031 81.691406 -76.230469 80.96875 -76.917969 C 80.191406 -77.527344 79.339844 -78.128906 78.289062 -78.632812 C 77.25 -79.070312 76.148438 -79.425781 74.855469 -79.617188 C 75.058594 -77.953125 75.074219 -76.683594 74.78125 -75.660156 C 74.484375 -74.636719 74.019531 -73.804688 73.386719 -73.230469 C 72.761719 -72.589844 71.96875 -72.140625 71.015625 -71.882812 C 70.058594 -71.621094 69.097656 -71.433594 68.105469 -71.453125 C 66.710938 -71.351562 65.371094 -71.324219 64.085938 -71.449219 C 62.742188 -71.496094 61.457031 -71.617188 60.234375 -71.820312 L 52.847656 -72.8125 C 50.417969 -73.074219 47.9375 -73.191406 45.472656 -73.167969 C 43.003906 -73.148438 40.367188 -72.820312 37.5 -72.042969 C 35.589844 -71.527344 33.707031 -70.800781 31.839844 -69.933594 C 29.96875 -69.070312 28.328125 -68.089844 26.84375 -66.988281 C 25.296875 -65.8125 23.984375 -64.449219 22.886719 -63.046875 C 21.800781 -61.574219 21.148438 -60.011719 20.796875 -58.273438 C 20.457031 -56.46875 20.46875 -54.640625 20.902344 -52.859375 C 21.265625 -51.070312 22.015625 -49.542969 23.023438 -48.253906 C 24.035156 -46.898438 25.285156 -45.925781 26.835938 -45.339844 C 28.320312 -44.75 30.144531 -44.832031 32.175781 -45.507812 Z M 13.308594 -1.855469 C 15.550781 -1.992188 17.632812 -2.8125 19.570312 -4.25 C 21.507812 -5.6875 23.394531 -7.542969 25.230469 -9.816406 C 27.074219 -12.015625 28.734375 -14.550781 30.355469 -17.429688 C 31.980469 -20.238281 33.59375 -23.1875 35.183594 -26.277344 C 36.039062 -27.933594 36.996094 -29.882812 38.074219 -31.992188 C 39.15625 -34.097656 40.296875 -36.285156 41.558594 -38.628906 L 43.394531 -42.027344 C 44.839844 -44.601562 46.351562 -47.1875 47.867188 -49.773438 C 49.382812 -52.355469 50.859375 -54.65625 52.363281 -56.746094 C 53.808594 -58.757812 55.15625 -60.402344 56.546875 -61.703125 C 57.867188 -62.996094 59.042969 -63.773438 60.136719 -64.050781 C 58.800781 -65.15625 57.359375 -65.398438 55.882812 -64.792969 C 54.335938 -64.179688 52.652344 -62.984375 50.75 -61.269531 C 50.183594 -60.707031 49.453125 -59.769531 48.488281 -58.453125 C 47.53125 -57.0625 46.382812 -55.511719 45.199219 -53.671875 C 43.945312 -51.828125 42.570312 -49.824219 41.144531 -47.671875 C 39.71875 -45.523438 38.222656 -43.363281 36.726562 -41.203125 L 34.265625 -37.726562 C 33.167969 -36.320312 32.140625 -34.925781 31.097656 -33.667969 C 30.054688 -32.410156 29.074219 -31.234375 28.132812 -30.269531 C 26.828125 -28.839844 25.578125 -27.558594 24.308594 -26.414062 C 23.046875 -25.199219 21.761719 -24.195312 20.527344 -23.335938 C 19.234375 -22.402344 18.050781 -21.691406 16.914062 -21.199219 C 15.777344 -20.707031 14.75 -20.4375 13.761719 -20.457031 C 12.78125 -20.40625 11.835938 -20.640625 11.003906 -21.101562 C 10.171875 -21.5625 9.503906 -22.398438 9 -23.605469 C 8.4375 -24.734375 8.109375 -26.246094 7.949219 -28.128906 C 7.796875 -29.945312 7.929688 -32.289062 8.359375 -35.089844 C 6.492188 -34.226562 4.867188 -33.109375 3.632812 -31.6875 C 2.328125 -30.257812 1.25 -28.710938 0.402344 -26.988281 C -0.5 -25.183594 -1.121094 -23.34375 -1.445312 -21.398438 C -1.828125 -19.378906 -1.945312 -17.460938 -1.859375 -15.636719 C -1.757812 -13.675781 -1.378906 -11.746094 -0.742188 -9.992188 C -0.101562 -8.238281 0.792969 -6.726562 2.074219 -5.472656 C 3.296875 -4.144531 4.832031 -3.136719 6.671875 -2.515625 C 8.519531 -1.828125 10.730469 -1.609375 13.308594 -1.855469 Z M 13.308594 -1.855469 "/></g></g></g><g fill="#5ce1e6" fill-opacity="1"><g transform="translate(127.008506, 208.157365)"><g><path d="M 7.851562 -26.636719 L -5.929688 0.519531 L 3.65625 -0.664062 L 14.863281 -24.683594 C 15.644531 -26.332031 16.785156 -27.953125 18.203125 -29.609375 C 18.578125 -30.007812 19.070312 -30.5625 19.757812 -31.28125 C 20.453125 -31.929688 21.210938 -32.660156 22.113281 -33.335938 C 22.949219 -34 23.800781 -34.53125 24.652344 -35.058594 C 25.503906 -35.585938 26.3125 -35.898438 27.144531 -36 C 27.917969 -36.027344 28.585938 -35.753906 29.070312 -35.25 C 29.5625 -34.679688 29.890625 -33.730469 30.0625 -32.34375 C 30.148438 -31.648438 29.941406 -31.058594 29.523438 -30.441406 C 29.105469 -29.828125 28.59375 -29.410156 27.933594 -29.046875 C 27.273438 -28.683594 26.535156 -28.378906 25.699219 -28.277344 C 24.867188 -28.175781 24.078125 -28.289062 23.332031 -28.621094 C 23.050781 -27.457031 22.953125 -26.527344 23.039062 -25.832031 C 23.125 -25.140625 23.414062 -24.539062 23.8125 -24.164062 C 24.148438 -23.714844 24.609375 -23.417969 25.121094 -23.269531 C 25.632812 -23.121094 26.136719 -23.042969 26.691406 -23.109375 C 27.957031 -23.125 29.042969 -23.472656 30.070312 -24.304688 C 31.027344 -25.128906 31.816406 -26.140625 32.503906 -27.425781 C 33.132812 -28.632812 33.601562 -29.957031 33.847656 -31.398438 C 34.09375 -32.839844 34.136719 -34.183594 33.976562 -35.503906 C 33.75 -36.746094 33.328125 -37.894531 32.710938 -38.875 C 32.027344 -39.847656 31.101562 -40.507812 29.9375 -40.789062 C 28.785156 -41 27.535156 -40.84375 26.324219 -40.34375 C 25.128906 -39.769531 23.9375 -39.128906 22.84375 -38.289062 C 21.6875 -37.371094 20.609375 -36.390625 19.601562 -35.421875 C 18.601562 -34.382812 17.792969 -33.507812 17.105469 -32.785156 C 17.253906 -34.425781 17.082031 -35.816406 16.660156 -36.960938 C 16.246094 -38.039062 15.457031 -38.71875 14.371094 -38.9375 C 13.511719 -39.042969 12.480469 -38.84375 11.269531 -38.34375 C 10.0625 -37.839844 8.621094 -36.957031 7.015625 -35.699219 C 7.679688 -34.867188 8.121094 -34.144531 8.488281 -33.484375 C 8.851562 -32.824219 9.003906 -32.140625 9.089844 -31.445312 C 9.109375 -30.742188 8.992188 -29.953125 8.800781 -29.222656 C 8.546875 -28.414062 8.234375 -27.53125 7.851562 -26.636719 Z M 6.9375 -35.761719 L 6.824219 -35.535156 L 7.015625 -35.699219 Z M 6.9375 -35.761719 "/></g></g></g><g fill="#5ce1e6" fill-opacity="1"><g transform="translate(157.357427, 204.409017)"><g><path d="M 20.097656 -42.816406 C 20.835938 -42.554688 21.84375 -42.960938 22.980469 -44.019531 C 23.484375 -44.503906 24.042969 -45.136719 24.511719 -45.898438 C 24.980469 -46.664062 25.449219 -47.425781 25.835938 -48.320312 C 26.21875 -49.214844 26.539062 -50.027344 26.785156 -50.90625 C 26.960938 -51.773438 27.140625 -52.570312 27.1875 -53.351562 C 27.214844 -54.835938 26.824219 -55.707031 26.089844 -55.96875 C 25.28125 -56.21875 24.34375 -55.820312 23.203125 -54.765625 C 22.074219 -53.636719 21.125 -52.179688 20.289062 -50.386719 L 20.28125 -50.453125 C 19.828125 -49.554688 19.515625 -48.667969 19.339844 -47.800781 C 19.097656 -46.925781 18.980469 -46.132812 18.988281 -45.5 C 18.9375 -44.789062 19.015625 -44.164062 19.214844 -43.695312 C 19.410156 -43.226562 19.664062 -42.902344 20.097656 -42.816406 Z M 1 -0.476562 C 2.160156 -0.195312 3.558594 -0.296875 5.332031 -0.800781 C 7.101562 -1.300781 8.953125 -2.304688 10.960938 -3.75 C 12.90625 -5.121094 14.941406 -6.921875 16.914062 -9.210938 C 18.898438 -11.429688 20.808594 -14.207031 22.535156 -17.378906 C 22.039062 -16.824219 21.414062 -16.183594 20.59375 -15.378906 C 19.707031 -14.5625 18.8125 -13.816406 17.839844 -13.132812 C 16.804688 -12.371094 15.824219 -11.757812 14.832031 -11.210938 C 13.773438 -10.65625 12.898438 -10.335938 12.195312 -10.320312 C 11.082031 -10.183594 10.40625 -10.523438 10.304688 -11.355469 C 10.207031 -12.121094 10.304688 -13.046875 10.730469 -14.160156 C 11.097656 -15.191406 11.542969 -16.164062 12.117188 -17.222656 C 12.621094 -18.269531 13.03125 -18.957031 13.257812 -19.40625 L 24.269531 -39.875 L 14.476562 -38.667969 L 0.75 -13.914062 C -0.398438 -11.796875 -1.226562 -9.933594 -1.671875 -8.394531 C -2.109375 -6.792969 -2.300781 -5.496094 -2.171875 -4.457031 C -2.105469 -3.335938 -1.777344 -2.390625 -1.203125 -1.753906 C -0.632812 -1.121094 0.132812 -0.652344 1 -0.476562 Z M 1 -0.476562 "/></g></g></g><g fill="#5ce1e6" fill-opacity="1"><g transform="translate(175.89987, 202.118868)"><g><path d="M 5.269531 -0.722656 C 6.484375 -1.152344 7.605469 -1.785156 8.625 -2.6875 C 9.648438 -3.519531 10.578125 -4.550781 11.421875 -5.710938 C 12.273438 -6.804688 13.058594 -7.886719 13.839844 -8.972656 C 14.554688 -10.046875 15.441406 -11.425781 16.363281 -13.09375 C 17.226562 -14.679688 18.078125 -16.335938 19 -18 C 19.925781 -19.667969 20.785156 -21.253906 21.585938 -22.761719 C 21.917969 -23.507812 22.257812 -24.183594 22.605469 -24.792969 C 22.953125 -25.398438 23.25 -25.859375 23.546875 -26.320312 L 24.871094 -25.285156 L 24.894531 -28.53125 C 26.042969 -30.648438 26.949219 -32.449219 27.53125 -34.003906 C 28.054688 -35.480469 28.386719 -36.789062 28.535156 -37.863281 C 28.625 -38.863281 28.519531 -39.695312 28.3125 -40.234375 C 28.035156 -40.765625 27.644531 -41.070312 27.210938 -41.15625 C 26.570312 -41.21875 25.894531 -40.992188 25.121094 -40.40625 C 24.347656 -39.816406 23.675781 -38.957031 23.117188 -37.761719 C 22.492188 -36.554688 22.117188 -35.027344 21.90625 -33.308594 C 21.695312 -31.589844 21.945312 -29.578125 22.566406 -27.398438 C 22.453125 -27.171875 22.347656 -26.875 22.175781 -26.574219 C 21.929688 -26.261719 21.703125 -25.808594 21.476562 -25.359375 C 20.902344 -24.300781 20.199219 -23.15625 19.511719 -21.871094 C 18.761719 -20.511719 17.945312 -19.140625 17.066406 -17.691406 C 16.125 -16.164062 15.300781 -14.863281 14.457031 -13.703125 C 13.613281 -12.539062 12.804688 -11.664062 12.109375 -11.015625 C 11.351562 -10.285156 10.742188 -10.070312 10.292969 -10.296875 L 10.285156 -10.367188 C 9.851562 -10.453125 9.644531 -10.992188 9.816406 -11.859375 C 9.929688 -12.648438 10.238281 -13.605469 10.65625 -14.785156 C 11.082031 -15.894531 11.628906 -17.160156 12.300781 -18.582031 L 14.3125 -22.851562 L 16.28125 -26.902344 C 16.558594 -27.5 16.835938 -28.097656 17.046875 -28.691406 C 17.257812 -29.28125 17.40625 -29.792969 17.621094 -30.3125 C 17.832031 -30.902344 17.960938 -31.550781 18.015625 -32.265625 C 18.070312 -32.976562 18.050781 -33.679688 17.964844 -34.375 C 17.882812 -35.066406 17.664062 -35.675781 17.371094 -36.34375 C 17.085938 -36.945312 16.667969 -37.457031 16.191406 -37.890625 C 14.945312 -38.867188 12.949219 -39.042969 10.34375 -38.4375 C 10.722656 -37.640625 11.027344 -36.902344 11.113281 -36.207031 C 11.257812 -35.027344 10.976562 -33.863281 10.265625 -32.789062 C 9.847656 -32.171875 9.4375 -31.488281 8.976562 -30.65625 L -0.96875 -12.996094 C -1.214844 -12.683594 -1.398438 -12.449219 -1.5 -12.15625 C -1.675781 -11.851562 -1.847656 -11.546875 -2.023438 -11.242188 C -2.355469 -10.496094 -2.738281 -9.605469 -3.035156 -8.582031 C -3.332031 -7.558594 -3.488281 -6.550781 -3.378906 -5.648438 C -3.214844 -3.761719 -2.410156 -2.382812 -1.023438 -1.425781 C -0.398438 -0.9375 0.554688 -0.632812 1.71875 -0.351562 C 2.882812 -0.0742188 4.0625 -0.21875 5.269531 -0.722656 Z M 5.269531 -0.722656 "/></g></g></g><g fill="#5ce1e6" fill-opacity="1"><g transform="translate(199.651056, 199.185396)"><g><path d="M 20.097656 -42.816406 C 20.835938 -42.554688 21.84375 -42.960938 22.980469 -44.019531 C 23.484375 -44.503906 24.042969 -45.136719 24.511719 -45.898438 C 24.980469 -46.664062 25.449219 -47.425781 25.835938 -48.320312 C 26.21875 -49.214844 26.539062 -50.027344 26.785156 -50.90625 C 26.960938 -51.773438 27.140625 -52.570312 27.1875 -53.351562 C 27.214844 -54.835938 26.824219 -55.707031 26.089844 -55.96875 C 25.28125 -56.21875 24.34375 -55.820312 23.203125 -54.765625 C 22.074219 -53.636719 21.125 -52.179688 20.289062 -50.386719 L 20.28125 -50.453125 C 19.828125 -49.554688 19.515625 -48.667969 19.339844 -47.800781 C 19.097656 -46.925781 18.980469 -46.132812 18.988281 -45.5 C 18.9375 -44.789062 19.015625 -44.164062 19.214844 -43.695312 C 19.410156 -43.226562 19.664062 -42.902344 20.097656 -42.816406 Z M 1 -0.476562 C 2.160156 -0.195312 3.558594 -0.296875 5.332031 -0.800781 C 7.101562 -1.300781 8.953125 -2.304688 10.960938 -3.75 C 12.90625 -5.121094 14.941406 -6.921875 16.914062 -9.210938 C 18.898438 -11.429688 20.808594 -14.207031 22.535156 -17.378906 C 22.039062 -16.824219 21.414062 -16.183594 20.59375 -15.378906 C 19.707031 -14.5625 18.8125 -13.816406 17.839844 -13.132812 C 16.804688 -12.371094 15.824219 -11.757812 14.832031 -11.210938 C 13.773438 -10.65625 12.898438 -10.335938 12.195312 -10.320312 C 11.082031 -10.183594 10.40625 -10.523438 10.304688 -11.355469 C 10.207031 -12.121094 10.304688 -13.046875 10.730469 -14.160156 C 11.097656 -15.191406 11.542969 -16.164062 12.117188 -17.222656 C 12.621094 -18.269531 13.03125 -18.957031 13.257812 -19.40625 L 24.269531 -39.875 L 14.476562 -38.667969 L 0.75 -13.914062 C -0.398438 -11.796875 -1.226562 -9.933594 -1.671875 -8.394531 C -2.109375 -6.792969 -2.300781 -5.496094 -2.171875 -4.457031 C -2.105469 -3.335938 -1.777344 -2.390625 -1.203125 -1.753906 C -0.632812 -1.121094 0.132812 -0.652344 1 -0.476562 Z M 1 -0.476562 "/></g></g></g><g fill="#5ce1e6" fill-opacity="1"><g transform="translate(218.1935, 196.895247)"><g><path d="M 22.078125 -3.363281 L 21.828125 -3.117188 C 23.773438 -3.359375 25.648438 -4.15625 27.515625 -5.585938 C 29.324219 -6.9375 31.089844 -8.632812 32.679688 -10.59375 C 34.210938 -12.476562 35.574219 -14.546875 36.863281 -16.679688 C 38.152344 -18.816406 39.171875 -20.84375 39.9375 -22.632812 C 39.816406 -22.476562 39.683594 -22.390625 39.492188 -22.222656 C 39.300781 -22.058594 39.121094 -21.824219 38.867188 -21.582031 C 38.3125 -20.949219 37.683594 -20.308594 36.988281 -19.660156 C 36.304688 -18.9375 35.546875 -18.210938 34.722656 -17.472656 C 32.957031 -15.777344 31.488281 -14.535156 30.167969 -13.808594 C 29.515625 -13.375 28.96875 -13.238281 28.605469 -13.335938 C 28.238281 -13.429688 28.117188 -13.839844 28.242188 -14.558594 C 28.292969 -15.269531 28.78125 -16.460938 29.582031 -17.96875 L 42.160156 -42.296875 L 32.367188 -41.089844 L 28.710938 -34.148438 C 28.542969 -35.539062 28.195312 -36.625 27.589844 -37.535156 C 26.992188 -38.378906 26.28125 -38.996094 25.378906 -39.449219 C 24.414062 -39.824219 23.339844 -39.972656 22.210938 -39.976562 C 21.089844 -39.90625 19.859375 -39.613281 18.640625 -39.183594 C 17.703125 -38.785156 16.644531 -38.230469 15.550781 -37.390625 C 14.453125 -36.550781 13.367188 -35.640625 12.238281 -34.511719 C 11.109375 -33.386719 9.925781 -32.113281 8.761719 -30.699219 C 7.59375 -29.285156 6.5 -27.878906 5.421875 -26.335938 C 4.097656 -24.480469 2.914062 -22.644531 1.878906 -20.75 C 0.78125 -18.78125 -0.113281 -16.910156 -0.871094 -15.054688 C -1.410156 -13.71875 -1.855469 -12.179688 -2.066406 -10.460938 C -2.277344 -8.746094 -2.296875 -7.191406 -1.980469 -5.75 C -1.722656 -4.230469 -1.148438 -3.03125 -0.328125 -2.074219 C 0.496094 -1.117188 1.746094 -0.710938 3.480469 -0.921875 C 5.84375 -1.214844 8.285156 -2.011719 10.648438 -3.429688 C 11.769531 -4.0625 12.800781 -4.824219 13.757812 -5.648438 C 14.714844 -6.472656 15.515625 -7.417969 16.097656 -8.40625 C 16.15625 -6.789062 16.734375 -5.523438 17.84375 -4.53125 C 18.886719 -3.53125 20.273438 -3.136719 22.078125 -3.363281 Z M 9.390625 -10.75 C 8.722656 -11.019531 8.238281 -11.523438 7.925781 -12.332031 C 7.613281 -13.140625 7.625 -14.199219 7.878906 -15.570312 C 8.070312 -16.863281 8.585938 -18.40625 9.472656 -20.351562 C 10.371094 -22.222656 11.648438 -24.425781 13.3125 -26.957031 C 14.023438 -28.035156 14.738281 -29.109375 15.589844 -30.203125 C 16.375 -31.285156 17.242188 -32.238281 18.113281 -33.191406 C 18.921875 -34.070312 19.816406 -34.8125 20.804688 -35.359375 C 21.726562 -35.894531 22.753906 -36.164062 23.863281 -36.300781 C 24.496094 -36.308594 25.007812 -36.160156 25.398438 -35.855469 C 25.730469 -35.472656 25.996094 -35.011719 26.214844 -34.40625 C 26.359375 -33.789062 26.445312 -33.09375 26.410156 -32.242188 C 26.375 -31.394531 26.335938 -30.542969 26.171875 -29.605469 L 26.242188 -29.613281 L 20.253906 -18.71875 C 19.800781 -17.816406 19.148438 -16.820312 18.433594 -15.746094 C 17.652344 -14.660156 16.789062 -13.636719 15.84375 -12.746094 C 14.835938 -11.773438 13.792969 -11.082031 12.714844 -10.667969 C 11.578125 -10.171875 10.449219 -10.175781 9.390625 -10.75 Z M 9.390625 -10.75 "/></g></g></g><g fill="#ff914d" fill-opacity="1"><g transform="translate(103.99273, 262.806602)"><g><path d="M 32.175781 -45.507812 C 33.269531 -45.785156 34.191406 -46.320312 35.09375 -46.996094 C 35.929688 -47.664062 36.597656 -48.519531 37.171875 -49.578125 C 38.191406 -51.609375 38.160156 -54.144531 37.226562 -57.132812 C 36.203125 -56.300781 35.183594 -55.960938 34.335938 -56 C 33.414062 -56.027344 32.675781 -56.289062 32.105469 -56.921875 C 31.472656 -57.476562 31.023438 -58.269531 30.761719 -59.222656 C 30.503906 -60.179688 30.453125 -61.160156 30.59375 -62.304688 C 30.960938 -64.464844 31.816406 -66.125 33.230469 -67.214844 C 34.648438 -68.308594 36.246094 -69.066406 38.035156 -69.429688 C 39.824219 -69.792969 41.699219 -70.023438 43.53125 -70.039062 C 45.300781 -69.976562 47.082031 -69.84375 48.800781 -69.632812 C 50.515625 -69.421875 52.175781 -69.132812 53.773438 -68.765625 C 54.5 -68.574219 55.230469 -68.378906 55.886719 -68.179688 C 56.546875 -67.980469 57.199219 -67.847656 57.859375 -67.648438 C 58.449219 -67.4375 59.117188 -67.167969 59.777344 -66.96875 C 60.375 -66.6875 61.113281 -66.425781 61.925781 -66.105469 C 62.671875 -65.773438 63.488281 -65.453125 64.304688 -65.128906 C 65.121094 -64.808594 65.925781 -64.554688 66.804688 -64.308594 C 68.496094 -63.742188 70.238281 -63.324219 72.035156 -63.050781 C 73.761719 -62.773438 75.453125 -62.769531 76.964844 -63.097656 C 78.214844 -63.25 79.363281 -63.675781 80.265625 -64.351562 C 81.179688 -64.957031 81.933594 -65.683594 82.527344 -66.605469 C 83.058594 -67.445312 83.441406 -68.339844 83.597656 -69.347656 C 83.765625 -70.28125 83.78125 -71.273438 83.664062 -72.246094 C 83.492188 -73.070312 83.179688 -73.878906 82.730469 -74.667969 C 82.277344 -75.457031 81.691406 -76.230469 80.96875 -76.917969 C 80.191406 -77.527344 79.339844 -78.128906 78.289062 -78.632812 C 77.25 -79.070312 76.148438 -79.425781 74.855469 -79.617188 C 75.058594 -77.953125 75.074219 -76.683594 74.78125 -75.660156 C 74.484375 -74.636719 74.019531 -73.804688 73.386719 -73.230469 C 72.761719 -72.589844 71.96875 -72.140625 71.015625 -71.882812 C 70.058594 -71.621094 69.097656 -71.433594 68.105469 -71.453125 C 66.710938 -71.351562 65.371094 -71.324219 64.085938 -71.449219 C 62.742188 -71.496094 61.457031 -71.617188 60.234375 -71.820312 L 52.847656 -72.8125 C 50.417969 -73.074219 47.9375 -73.191406 45.472656 -73.167969 C 43.003906 -73.148438 40.367188 -72.820312 37.5 -72.042969 C 35.589844 -71.527344 33.707031 -70.800781 31.839844 -69.933594 C 29.96875 -69.070312 28.328125 -68.089844 26.84375 -66.988281 C 25.296875 -65.8125 23.984375 -64.449219 22.886719 -63.046875 C 21.800781 -61.574219 21.148438 -60.011719 20.796875 -58.273438 C 20.457031 -56.46875 20.46875 -54.640625 20.902344 -52.859375 C 21.265625 -51.070312 22.015625 -49.542969 23.023438 -48.253906 C 24.035156 -46.898438 25.285156 -45.925781 26.835938 -45.339844 C 28.320312 -44.75 30.144531 -44.832031 32.175781 -45.507812 Z M 13.308594 -1.855469 C 15.550781 -1.992188 17.632812 -2.8125 19.570312 -4.25 C 21.507812 -5.6875 23.394531 -7.542969 25.230469 -9.816406 C 27.074219 -12.015625 28.734375 -14.550781 30.355469 -17.429688 C 31.980469 -20.238281 33.59375 -23.1875 35.183594 -26.277344 C 36.039062 -27.933594 36.996094 -29.882812 38.074219 -31.992188 C 39.15625 -34.097656 40.296875 -36.285156 41.558594 -38.628906 L 43.394531 -42.027344 C 44.839844 -44.601562 46.351562 -47.1875 47.867188 -49.773438 C 49.382812 -52.355469 50.859375 -54.65625 52.363281 -56.746094 C 53.808594 -58.757812 55.15625 -60.402344 56.546875 -61.703125 C 57.867188 -62.996094 59.042969 -63.773438 60.136719 -64.050781 C 58.800781 -65.15625 57.359375 -65.398438 55.882812 -64.792969 C 54.335938 -64.179688 52.652344 -62.984375 50.75 -61.269531 C 50.183594 -60.707031 49.453125 -59.769531 48.488281 -58.453125 C 47.53125 -57.0625 46.382812 -55.511719 45.199219 -53.671875 C 43.945312 -51.828125 42.570312 -49.824219 41.144531 -47.671875 C 39.71875 -45.523438 38.222656 -43.363281 36.726562 -41.203125 L 34.265625 -37.726562 C 33.167969 -36.320312 32.140625 -34.925781 31.097656 -33.667969 C 30.054688 -32.410156 29.074219 -31.234375 28.132812 -30.269531 C 26.828125 -28.839844 25.578125 -27.558594 24.308594 -26.414062 C 23.046875 -25.199219 21.761719 -24.195312 20.527344 -23.335938 C 19.234375 -22.402344 18.050781 -21.691406 16.914062 -21.199219 C 15.777344 -20.707031 14.75 -20.4375 13.761719 -20.457031 C 12.78125 -20.40625 11.835938 -20.640625 11.003906 -21.101562 C 10.171875 -21.5625 9.503906 -22.398438 9 -23.605469 C 8.4375 -24.734375 8.109375 -26.246094 7.949219 -28.128906 C 7.796875 -29.945312 7.929688 -32.289062 8.359375 -35.089844 C 6.492188 -34.226562 4.867188 -33.109375 3.632812 -31.6875 C 2.328125 -30.257812 1.25 -28.710938 0.402344 -26.988281 C -0.5 -25.183594 -1.121094 -23.34375 -1.445312 -21.398438 C -1.828125 -19.378906 -1.945312 -17.460938 -1.859375 -15.636719 C -1.757812 -13.675781 -1.378906 -11.746094 -0.742188 -9.992188 C -0.101562 -8.238281 0.792969 -6.726562 2.074219 -5.472656 C 3.296875 -4.144531 4.832031 -3.136719 6.671875 -2.515625 C 8.519531 -1.828125 10.730469 -1.609375 13.308594 -1.855469 Z M 13.308594 -1.855469 "/></g></g></g><g fill="#ff914d" fill-opacity="1"><g transform="translate(148.856676, 257.265525)"><g><path d="M 7.851562 -26.636719 L -5.929688 0.519531 L 3.65625 -0.664062 L 14.863281 -24.683594 C 15.644531 -26.332031 16.785156 -27.953125 18.203125 -29.609375 C 18.578125 -30.007812 19.070312 -30.5625 19.757812 -31.28125 C 20.453125 -31.929688 21.210938 -32.660156 22.113281 -33.335938 C 22.949219 -34 23.800781 -34.53125 24.652344 -35.058594 C 25.503906 -35.585938 26.3125 -35.898438 27.144531 -36 C 27.917969 -36.027344 28.585938 -35.753906 29.070312 -35.25 C 29.5625 -34.679688 29.890625 -33.730469 30.0625 -32.34375 C 30.148438 -31.648438 29.941406 -31.058594 29.523438 -30.441406 C 29.105469 -29.828125 28.59375 -29.410156 27.933594 -29.046875 C 27.273438 -28.683594 26.535156 -28.378906 25.699219 -28.277344 C 24.867188 -28.175781 24.078125 -28.289062 23.332031 -28.621094 C 23.050781 -27.457031 22.953125 -26.527344 23.039062 -25.832031 C 23.125 -25.140625 23.414062 -24.539062 23.8125 -24.164062 C 24.148438 -23.714844 24.609375 -23.417969 25.121094 -23.269531 C 25.632812 -23.121094 26.136719 -23.042969 26.691406 -23.109375 C 27.957031 -23.125 29.042969 -23.472656 30.070312 -24.304688 C 31.027344 -25.128906 31.816406 -26.140625 32.503906 -27.425781 C 33.132812 -28.632812 33.601562 -29.957031 33.847656 -31.398438 C 34.09375 -32.839844 34.136719 -34.183594 33.976562 -35.503906 C 33.75 -36.746094 33.328125 -37.894531 32.710938 -38.875 C 32.027344 -39.847656 31.101562 -40.507812 29.9375 -40.789062 C 28.785156 -41 27.535156 -40.84375 26.324219 -40.34375 C 25.128906 -39.769531 23.9375 -39.128906 22.84375 -38.289062 C 21.6875 -37.371094 20.609375 -36.390625 19.601562 -35.421875 C 18.601562 -34.382812 17.792969 -33.507812 17.105469 -32.785156 C 17.253906 -34.425781 17.082031 -35.816406 16.660156 -36.960938 C 16.246094 -38.039062 15.457031 -38.71875 14.371094 -38.9375 C 13.511719 -39.042969 12.480469 -38.84375 11.269531 -38.34375 C 10.0625 -37.839844 8.621094 -36.957031 7.015625 -35.699219 C 7.679688 -34.867188 8.121094 -34.144531 8.488281 -33.484375 C 8.851562 -32.824219 9.003906 -32.140625 9.089844 -31.445312 C 9.109375 -30.742188 8.992188 -29.953125 8.800781 -29.222656 C 8.546875 -28.414062 8.234375 -27.53125 7.851562 -26.636719 Z M 6.9375 -35.761719 L 6.824219 -35.535156 L 7.015625 -35.699219 Z M 6.9375 -35.761719 "/></g></g></g><g fill="#ff914d" fill-opacity="1"><g transform="translate(179.205597, 253.517176)"><g><path d="M 22.078125 -3.363281 L 21.828125 -3.117188 C 23.773438 -3.359375 25.648438 -4.15625 27.515625 -5.585938 C 29.324219 -6.9375 31.089844 -8.632812 32.679688 -10.59375 C 34.210938 -12.476562 35.574219 -14.546875 36.863281 -16.679688 C 38.152344 -18.816406 39.171875 -20.84375 39.9375 -22.632812 C 39.816406 -22.476562 39.683594 -22.390625 39.492188 -22.222656 C 39.300781 -22.058594 39.121094 -21.824219 38.867188 -21.582031 C 38.3125 -20.949219 37.683594 -20.308594 36.988281 -19.660156 C 36.304688 -18.9375 35.546875 -18.210938 34.722656 -17.472656 C 32.957031 -15.777344 31.488281 -14.535156 30.167969 -13.808594 C 29.515625 -13.375 28.96875 -13.238281 28.605469 -13.335938 C 28.238281 -13.429688 28.117188 -13.839844 28.242188 -14.558594 C 28.292969 -15.269531 28.78125 -16.460938 29.582031 -17.96875 L 42.160156 -42.296875 L 32.367188 -41.089844 L 28.710938 -34.148438 C 28.542969 -35.539062 28.195312 -36.625 27.589844 -37.535156 C 26.992188 -38.378906 26.28125 -38.996094 25.378906 -39.449219 C 24.414062 -39.824219 23.339844 -39.972656 22.210938 -39.976562 C 21.089844 -39.90625 19.859375 -39.613281 18.640625 -39.183594 C 17.703125 -38.785156 16.644531 -38.230469 15.550781 -37.390625 C 14.453125 -36.550781 13.367188 -35.640625 12.238281 -34.511719 C 11.109375 -33.386719 9.925781 -32.113281 8.761719 -30.699219 C 7.59375 -29.285156 6.5 -27.878906 5.421875 -26.335938 C 4.097656 -24.480469 2.914062 -22.644531 1.878906 -20.75 C 0.78125 -18.78125 -0.113281 -16.910156 -0.871094 -15.054688 C -1.410156 -13.71875 -1.855469 -12.179688 -2.066406 -10.460938 C -2.277344 -8.746094 -2.296875 -7.191406 -1.980469 -5.75 C -1.722656 -4.230469 -1.148438 -3.03125 -0.328125 -2.074219 C 0.496094 -1.117188 1.746094 -0.710938 3.480469 -0.921875 C 5.84375 -1.214844 8.285156 -2.011719 10.648438 -3.429688 C 11.769531 -4.0625 12.800781 -4.824219 13.757812 -5.648438 C 14.714844 -6.472656 15.515625 -7.417969 16.097656 -8.40625 C 16.15625 -6.789062 16.734375 -5.523438 17.84375 -4.53125 C 18.886719 -3.53125 20.273438 -3.136719 22.078125 -3.363281 Z M 9.390625 -10.75 C 8.722656 -11.019531 8.238281 -11.523438 7.925781 -12.332031 C 7.613281 -13.140625 7.625 -14.199219 7.878906 -15.570312 C 8.070312 -16.863281 8.585938 -18.40625 9.472656 -20.351562 C 10.371094 -22.222656 11.648438 -24.425781 13.3125 -26.957031 C 14.023438 -28.035156 14.738281 -29.109375 15.589844 -30.203125 C 16.375 -31.285156 17.242188 -32.238281 18.113281 -33.191406 C 18.921875 -34.070312 19.816406 -34.8125 20.804688 -35.359375 C 21.726562 -35.894531 22.753906 -36.164062 23.863281 -36.300781 C 24.496094 -36.308594 25.007812 -36.160156 25.398438 -35.855469 C 25.730469 -35.472656 25.996094 -35.011719 26.214844 -34.40625 C 26.359375 -33.789062 26.445312 -33.09375 26.410156 -32.242188 C 26.375 -31.394531 26.335938 -30.542969 26.171875 -29.605469 L 26.242188 -29.613281 L 20.253906 -18.71875 C 19.800781 -17.816406 19.148438 -16.820312 18.433594 -15.746094 C 17.652344 -14.660156 16.789062 -13.636719 15.84375 -12.746094 C 14.835938 -11.773438 13.792969 -11.082031 12.714844 -10.667969 C 11.578125 -10.171875 10.449219 -10.175781 9.390625 -10.75 Z M 9.390625 -10.75 "/></g></g></g><g fill="#ff914d" fill-opacity="1"><g transform="translate(215.110511, 249.082616)"><g><path d="M 3.316406 -0.550781 C 5.035156 -0.339844 6.703125 -0.546875 8.386719 -1.175781 C 10.070312 -1.808594 11.730469 -2.648438 13.347656 -3.835938 C 14.902344 -4.941406 16.363281 -6.25 17.804688 -7.699219 C 19.25 -9.148438 20.605469 -10.726562 21.804688 -12.425781 C 22.945312 -14.046875 24.007812 -15.726562 25 -17.402344 C 25.921875 -19.066406 26.722656 -20.578125 27.382812 -22.070312 C 24.617188 -18.203125 22 -15.410156 19.671875 -13.710938 C 17.34375 -12.015625 15.328125 -11.199219 13.695312 -11.28125 C 12.003906 -11.285156 10.910156 -12.136719 10.273438 -13.890625 C 9.640625 -15.574219 9.695312 -17.980469 10.449219 -21.035156 C 11.164062 -23.800781 12.070312 -26.171875 13.097656 -28.132812 C 14.132812 -30.023438 15.210938 -31.566406 16.324219 -32.832031 C 17.375 -34.019531 18.402344 -34.851562 19.460938 -35.40625 C 20.519531 -35.957031 21.398438 -36.277344 22.152344 -36.441406 C 22.710938 -36.511719 23.210938 -36.433594 23.601562 -36.128906 C 23.921875 -35.816406 24.113281 -35.414062 24.113281 -34.851562 C 24.042969 -34.277344 23.851562 -33.550781 23.457031 -32.726562 C 23.066406 -31.902344 22.398438 -31.042969 21.519531 -30.160156 C 21.207031 -29.835938 20.816406 -29.578125 20.433594 -29.25 C 20.171875 -29.074219 19.921875 -28.832031 19.660156 -28.660156 C 19.398438 -28.488281 19.214844 -28.253906 19.023438 -28.085938 C 18.589844 -27.609375 18.292969 -27.152344 18.136719 -26.707031 C 17.910156 -26.257812 18.039062 -25.78125 18.457031 -25.265625 L 18.328125 -25.179688 C 18.671875 -24.660156 19.195312 -24.441406 20.035156 -24.476562 C 20.878906 -24.507812 21.730469 -25.035156 22.730469 -26.078125 C 23.605469 -26.960938 24.3125 -28.105469 24.914062 -29.519531 C 25.523438 -30.863281 25.914062 -32.253906 26.160156 -33.691406 C 26.371094 -35.410156 26.261719 -36.878906 25.6875 -38.078125 C 25.117188 -39.277344 23.988281 -39.84375 22.375 -39.785156 C 20.003906 -39.5625 17.703125 -38.785156 15.601562 -37.535156 C 13.5 -36.289062 11.5 -34.773438 9.746094 -33.003906 C 7.925781 -31.160156 6.335938 -29.199219 4.902344 -27.117188 C 3.472656 -24.96875 2.378906 -23 1.472656 -21.195312 C 0.167969 -18.636719 -0.863281 -16.113281 -1.542969 -13.628906 C -2.292969 -11.140625 -2.511719 -8.925781 -2.203125 -6.992188 C -1.929688 -4.769531 -1.238281 -3.160156 -0.265625 -2.152344 C 0.703125 -1.144531 1.894531 -0.65625 3.316406 -0.550781 Z M 3.316406 -0.550781 "/></g></g></g><g fill="#ff914d" fill-opacity="1"><g transform="translate(239.972886, 246.011902)"><g><path d="M -0.585938 -15.582031 L -9.167969 0.566406 L 1.320312 -0.726562 L 8.917969 -15.132812 C 9.710938 -11 10.855469 -8.039062 12.28125 -6.171875 C 13.644531 -4.292969 15.257812 -3.222656 16.984375 -2.945312 C 18.648438 -2.585938 20.4375 -2.949219 22.28125 -4.019531 C 24.121094 -5.09375 25.988281 -6.523438 27.808594 -8.371094 C 29.5625 -10.136719 31.214844 -12.175781 32.761719 -14.484375 C 34.3125 -16.789062 35.652344 -19.070312 36.714844 -21.316406 C 36.148438 -20.753906 35.652344 -20.199219 35.148438 -19.714844 C 34.652344 -19.160156 34.160156 -18.605469 33.730469 -18.058594 C 32.878906 -16.964844 31.949219 -15.933594 30.925781 -15.101562 C 29.90625 -14.199219 28.785156 -13.570312 27.554688 -13.273438 C 26.328125 -12.914062 24.765625 -13 23.003906 -13.558594 C 21.617188 -13.953125 20.34375 -14.570312 19.171875 -15.484375 C 18.007812 -16.328125 17.039062 -17.335938 16.191406 -18.5 C 16.816406 -18.578125 17.632812 -18.820312 18.570312 -19.21875 C 20.375 -20.003906 22.496094 -21.113281 24.839844 -22.671875 C 25.953125 -23.371094 27.308594 -24.386719 28.988281 -25.652344 C 30.59375 -26.90625 31.976562 -28.277344 33.203125 -29.769531 C 34.367188 -31.179688 35.125 -32.472656 35.542969 -33.652344 C 35.960938 -34.832031 35.980469 -35.824219 35.667969 -36.628906 C 35.289062 -37.429688 34.726562 -37.996094 33.832031 -38.378906 C 32.9375 -38.761719 31.863281 -38.910156 30.542969 -38.746094 C 29.222656 -38.585938 27.738281 -38.046875 26.007812 -37.199219 C 23.75 -36.074219 21.671875 -34.621094 19.777344 -32.835938 C 17.882812 -31.050781 16.195312 -29.289062 14.789062 -27.5625 L 14.726562 -27.488281 L 20.578125 -38.363281 C 21.019531 -38.769531 21.53125 -39.1875 22.105469 -39.679688 C 22.679688 -40.175781 23.324219 -40.675781 23.957031 -41.25 C 24.53125 -41.742188 25.164062 -42.3125 25.800781 -42.886719 C 26.433594 -43.457031 27.136719 -44.039062 27.835938 -44.6875 C 29.164062 -45.910156 30.554688 -47.210938 31.9375 -48.582031 C 33.320312 -49.949219 34.554688 -51.371094 35.769531 -52.933594 C 36.929688 -54.414062 37.945312 -55.878906 38.886719 -57.40625 C 39.753906 -58.925781 40.355469 -60.339844 40.75 -61.726562 C 41.082031 -63.035156 41.136719 -64.3125 40.929688 -65.414062 C 40.652344 -66.511719 40.039062 -67.492188 38.945312 -68.34375 C 38.183594 -68.8125 37.289062 -69.195312 36.28125 -69.355469 C 35.273438 -69.511719 34.15625 -69.445312 32.992188 -69.160156 C 31.765625 -68.796875 30.636719 -68.234375 29.472656 -67.386719 C 28.308594 -66.535156 27.316406 -65.425781 26.429688 -64.046875 C 24.777344 -61.445312 23.125 -58.84375 21.609375 -56.261719 C 20.09375 -53.675781 18.519531 -51.011719 17.023438 -48.289062 C 13.953125 -42.902344 10.957031 -37.457031 8.03125 -32.019531 C 5.117188 -26.511719 2.269531 -21.011719 -0.585938 -15.582031 Z M 21.746094 -42.597656 L 34.511719 -63.707031 C 34.859375 -64.3125 35.371094 -64.730469 35.910156 -64.9375 C 36.457031 -65.074219 36.882812 -65.058594 37.332031 -64.832031 C 37.644531 -64.585938 37.976562 -64.203125 38.183594 -63.667969 C 38.390625 -63.128906 38.40625 -62.425781 38.300781 -61.566406 C 38.125 -60.699219 37.691406 -59.65625 37.125 -58.527344 C 36.566406 -57.332031 35.671875 -56.023438 34.507812 -54.609375 C 33.53125 -53.359375 32.410156 -52.164062 31.226562 -50.890625 C 29.976562 -49.609375 28.785156 -48.402344 27.585938 -47.265625 C 26.457031 -46.140625 25.371094 -45.230469 24.34375 -44.398438 C 23.320312 -43.566406 22.40625 -42.960938 21.746094 -42.597656 Z M 9.554688 -16.835938 L 12.472656 -22.34375 L 15.480469 -25.394531 C 16.042969 -25.957031 16.609375 -26.519531 17.234375 -27.160156 C 17.871094 -27.734375 18.433594 -28.296875 19.0625 -28.9375 C 20.261719 -30.074219 21.417969 -30.992188 22.527344 -31.695312 C 23.640625 -32.394531 24.519531 -32.714844 25.109375 -32.503906 L 25.117188 -32.4375 C 26.078125 -32.0625 26.503906 -31.480469 26.3125 -30.75 C 26.128906 -29.953125 25.535156 -29.03125 24.667969 -28.078125 C 23.738281 -27.046875 22.597656 -25.992188 21.183594 -24.898438 C 19.773438 -23.738281 18.347656 -22.714844 16.855469 -21.683594 C 15.300781 -20.574219 13.933594 -19.632812 12.632812 -18.765625 C 11.328125 -17.898438 10.277344 -17.277344 9.554688 -16.835938 Z M 9.554688 -16.835938 "/></g></g></g><g fill="#ffde59" fill-opacity="1"><g transform="translate(105.54896, 261.674234)"><g><path d="M 32.175781 -45.507812 C 33.269531 -45.785156 34.191406 -46.320312 35.09375 -46.996094 C 35.929688 -47.664062 36.597656 -48.519531 37.171875 -49.578125 C 38.191406 -51.609375 38.160156 -54.144531 37.226562 -57.132812 C 36.203125 -56.300781 35.183594 -55.960938 34.335938 -56 C 33.414062 -56.027344 32.675781 -56.289062 32.105469 -56.921875 C 31.472656 -57.476562 31.023438 -58.269531 30.761719 -59.222656 C 30.503906 -60.179688 30.453125 -61.160156 30.59375 -62.304688 C 30.960938 -64.464844 31.816406 -66.125 33.230469 -67.214844 C 34.648438 -68.308594 36.246094 -69.066406 38.035156 -69.429688 C 39.824219 -69.792969 41.699219 -70.023438 43.53125 -70.039062 C 45.300781 -69.976562 47.082031 -69.84375 48.800781 -69.632812 C 50.515625 -69.421875 52.175781 -69.132812 53.773438 -68.765625 C 54.5 -68.574219 55.230469 -68.378906 55.886719 -68.179688 C 56.546875 -67.980469 57.199219 -67.847656 57.859375 -67.648438 C 58.449219 -67.4375 59.117188 -67.167969 59.777344 -66.96875 C 60.375 -66.6875 61.113281 -66.425781 61.925781 -66.105469 C 62.671875 -65.773438 63.488281 -65.453125 64.304688 -65.128906 C 65.121094 -64.808594 65.925781 -64.554688 66.804688 -64.308594 C 68.496094 -63.742188 70.238281 -63.324219 72.035156 -63.050781 C 73.761719 -62.773438 75.453125 -62.769531 76.964844 -63.097656 C 78.214844 -63.25 79.363281 -63.675781 80.265625 -64.351562 C 81.179688 -64.957031 81.933594 -65.683594 82.527344 -66.605469 C 83.058594 -67.445312 83.441406 -68.339844 83.597656 -69.347656 C 83.765625 -70.28125 83.78125 -71.273438 83.664062 -72.246094 C 83.492188 -73.070312 83.179688 -73.878906 82.730469 -74.667969 C 82.277344 -75.457031 81.691406 -76.230469 80.96875 -76.917969 C 80.191406 -77.527344 79.339844 -78.128906 78.289062 -78.632812 C 77.25 -79.070312 76.148438 -79.425781 74.855469 -79.617188 C 75.058594 -77.953125 75.074219 -76.683594 74.78125 -75.660156 C 74.484375 -74.636719 74.019531 -73.804688 73.386719 -73.230469 C 72.761719 -72.589844 71.96875 -72.140625 71.015625 -71.882812 C 70.058594 -71.621094 69.097656 -71.433594 68.105469 -71.453125 C 66.710938 -71.351562 65.371094 -71.324219 64.085938 -71.449219 C 62.742188 -71.496094 61.457031 -71.617188 60.234375 -71.820312 L 52.847656 -72.8125 C 50.417969 -73.074219 47.9375 -73.191406 45.472656 -73.167969 C 43.003906 -73.148438 40.367188 -72.820312 37.5 -72.042969 C 35.589844 -71.527344 33.707031 -70.800781 31.839844 -69.933594 C 29.96875 -69.070312 28.328125 -68.089844 26.84375 -66.988281 C 25.296875 -65.8125 23.984375 -64.449219 22.886719 -63.046875 C 21.800781 -61.574219 21.148438 -60.011719 20.796875 -58.273438 C 20.457031 -56.46875 20.46875 -54.640625 20.902344 -52.859375 C 21.265625 -51.070312 22.015625 -49.542969 23.023438 -48.253906 C 24.035156 -46.898438 25.285156 -45.925781 26.835938 -45.339844 C 28.320312 -44.75 30.144531 -44.832031 32.175781 -45.507812 Z M 13.308594 -1.855469 C 15.550781 -1.992188 17.632812 -2.8125 19.570312 -4.25 C 21.507812 -5.6875 23.394531 -7.542969 25.230469 -9.816406 C 27.074219 -12.015625 28.734375 -14.550781 30.355469 -17.429688 C 31.980469 -20.238281 33.59375 -23.1875 35.183594 -26.277344 C 36.039062 -27.933594 36.996094 -29.882812 38.074219 -31.992188 C 39.15625 -34.097656 40.296875 -36.285156 41.558594 -38.628906 L 43.394531 -42.027344 C 44.839844 -44.601562 46.351562 -47.1875 47.867188 -49.773438 C 49.382812 -52.355469 50.859375 -54.65625 52.363281 -56.746094 C 53.808594 -58.757812 55.15625 -60.402344 56.546875 -61.703125 C 57.867188 -62.996094 59.042969 -63.773438 60.136719 -64.050781 C 58.800781 -65.15625 57.359375 -65.398438 55.882812 -64.792969 C 54.335938 -64.179688 52.652344 -62.984375 50.75 -61.269531 C 50.183594 -60.707031 49.453125 -59.769531 48.488281 -58.453125 C 47.53125 -57.0625 46.382812 -55.511719 45.199219 -53.671875 C 43.945312 -51.828125 42.570312 -49.824219 41.144531 -47.671875 C 39.71875 -45.523438 38.222656 -43.363281 36.726562 -41.203125 L 34.265625 -37.726562 C 33.167969 -36.320312 32.140625 -34.925781 31.097656 -33.667969 C 30.054688 -32.410156 29.074219 -31.234375 28.132812 -30.269531 C 26.828125 -28.839844 25.578125 -27.558594 24.308594 -26.414062 C 23.046875 -25.199219 21.761719 -24.195312 20.527344 -23.335938 C 19.234375 -22.402344 18.050781 -21.691406 16.914062 -21.199219 C 15.777344 -20.707031 14.75 -20.4375 13.761719 -20.457031 C 12.78125 -20.40625 11.835938 -20.640625 11.003906 -21.101562 C 10.171875 -21.5625 9.503906 -22.398438 9 -23.605469 C 8.4375 -24.734375 8.109375 -26.246094 7.949219 -28.128906 C 7.796875 -29.945312 7.929688 -32.289062 8.359375 -35.089844 C 6.492188 -34.226562 4.867188 -33.109375 3.632812 -31.6875 C 2.328125 -30.257812 1.25 -28.710938 0.402344 -26.988281 C -0.5 -25.183594 -1.121094 -23.34375 -1.445312 -21.398438 C -1.828125 -19.378906 -1.945312 -17.460938 -1.859375 -15.636719 C -1.757812 -13.675781 -1.378906 -11.746094 -0.742188 -9.992188 C -0.101562 -8.238281 0.792969 -6.726562 2.074219 -5.472656 C 3.296875 -4.144531 4.832031 -3.136719 6.671875 -2.515625 C 8.519531 -1.828125 10.730469 -1.609375 13.308594 -1.855469 Z M 13.308594 -1.855469 "/></g></g></g><g fill="#ffde59" fill-opacity="1"><g transform="translate(150.412906, 256.133157)"><g><path d="M 7.851562 -26.636719 L -5.929688 0.519531 L 3.65625 -0.664062 L 14.863281 -24.683594 C 15.644531 -26.332031 16.785156 -27.953125 18.203125 -29.609375 C 18.578125 -30.007812 19.070312 -30.5625 19.757812 -31.28125 C 20.453125 -31.929688 21.210938 -32.660156 22.113281 -33.335938 C 22.949219 -34 23.800781 -34.53125 24.652344 -35.058594 C 25.503906 -35.585938 26.3125 -35.898438 27.144531 -36 C 27.917969 -36.027344 28.585938 -35.753906 29.070312 -35.25 C 29.5625 -34.679688 29.890625 -33.730469 30.0625 -32.34375 C 30.148438 -31.648438 29.941406 -31.058594 29.523438 -30.441406 C 29.105469 -29.828125 28.59375 -29.410156 27.933594 -29.046875 C 27.273438 -28.683594 26.535156 -28.378906 25.699219 -28.277344 C 24.867188 -28.175781 24.078125 -28.289062 23.332031 -28.621094 C 23.050781 -27.457031 22.953125 -26.527344 23.039062 -25.832031 C 23.125 -25.140625 23.414062 -24.539062 23.8125 -24.164062 C 24.148438 -23.714844 24.609375 -23.417969 25.121094 -23.269531 C 25.632812 -23.121094 26.136719 -23.042969 26.691406 -23.109375 C 27.957031 -23.125 29.042969 -23.472656 30.070312 -24.304688 C 31.027344 -25.128906 31.816406 -26.140625 32.503906 -27.425781 C 33.132812 -28.632812 33.601562 -29.957031 33.847656 -31.398438 C 34.09375 -32.839844 34.136719 -34.183594 33.976562 -35.503906 C 33.75 -36.746094 33.328125 -37.894531 32.710938 -38.875 C 32.027344 -39.847656 31.101562 -40.507812 29.9375 -40.789062 C 28.785156 -41 27.535156 -40.84375 26.324219 -40.34375 C 25.128906 -39.769531 23.9375 -39.128906 22.84375 -38.289062 C 21.6875 -37.371094 20.609375 -36.390625 19.601562 -35.421875 C 18.601562 -34.382812 17.792969 -33.507812 17.105469 -32.785156 C 17.253906 -34.425781 17.082031 -35.816406 16.660156 -36.960938 C 16.246094 -38.039062 15.457031 -38.71875 14.371094 -38.9375 C 13.511719 -39.042969 12.480469 -38.84375 11.269531 -38.34375 C 10.0625 -37.839844 8.621094 -36.957031 7.015625 -35.699219 C 7.679688 -34.867188 8.121094 -34.144531 8.488281 -33.484375 C 8.851562 -32.824219 9.003906 -32.140625 9.089844 -31.445312 C 9.109375 -30.742188 8.992188 -29.953125 8.800781 -29.222656 C 8.546875 -28.414062 8.234375 -27.53125 7.851562 -26.636719 Z M 6.9375 -35.761719 L 6.824219 -35.535156 L 7.015625 -35.699219 Z M 6.9375 -35.761719 "/></g></g></g><g fill="#ffde59" fill-opacity="1"><g transform="translate(180.761826, 252.384808)"><g><path d="M 22.078125 -3.363281 L 21.828125 -3.117188 C 23.773438 -3.359375 25.648438 -4.15625 27.515625 -5.585938 C 29.324219 -6.9375 31.089844 -8.632812 32.679688 -10.59375 C 34.210938 -12.476562 35.574219 -14.546875 36.863281 -16.679688 C 38.152344 -18.816406 39.171875 -20.84375 39.9375 -22.632812 C 39.816406 -22.476562 39.683594 -22.390625 39.492188 -22.222656 C 39.300781 -22.058594 39.121094 -21.824219 38.867188 -21.582031 C 38.3125 -20.949219 37.683594 -20.308594 36.988281 -19.660156 C 36.304688 -18.9375 35.546875 -18.210938 34.722656 -17.472656 C 32.957031 -15.777344 31.488281 -14.535156 30.167969 -13.808594 C 29.515625 -13.375 28.96875 -13.238281 28.605469 -13.335938 C 28.238281 -13.429688 28.117188 -13.839844 28.242188 -14.558594 C 28.292969 -15.269531 28.78125 -16.460938 29.582031 -17.96875 L 42.160156 -42.296875 L 32.367188 -41.089844 L 28.710938 -34.148438 C 28.542969 -35.539062 28.195312 -36.625 27.589844 -37.535156 C 26.992188 -38.378906 26.28125 -38.996094 25.378906 -39.449219 C 24.414062 -39.824219 23.339844 -39.972656 22.210938 -39.976562 C 21.089844 -39.90625 19.859375 -39.613281 18.640625 -39.183594 C 17.703125 -38.785156 16.644531 -38.230469 15.550781 -37.390625 C 14.453125 -36.550781 13.367188 -35.640625 12.238281 -34.511719 C 11.109375 -33.386719 9.925781 -32.113281 8.761719 -30.699219 C 7.59375 -29.285156 6.5 -27.878906 5.421875 -26.335938 C 4.097656 -24.480469 2.914062 -22.644531 1.878906 -20.75 C 0.78125 -18.78125 -0.113281 -16.910156 -0.871094 -15.054688 C -1.410156 -13.71875 -1.855469 -12.179688 -2.066406 -10.460938 C -2.277344 -8.746094 -2.296875 -7.191406 -1.980469 -5.75 C -1.722656 -4.230469 -1.148438 -3.03125 -0.328125 -2.074219 C 0.496094 -1.117188 1.746094 -0.710938 3.480469 -0.921875 C 5.84375 -1.214844 8.285156 -2.011719 10.648438 -3.429688 C 11.769531 -4.0625 12.800781 -4.824219 13.757812 -5.648438 C 14.714844 -6.472656 15.515625 -7.417969 16.097656 -8.40625 C 16.15625 -6.789062 16.734375 -5.523438 17.84375 -4.53125 C 18.886719 -3.53125 20.273438 -3.136719 22.078125 -3.363281 Z M 9.390625 -10.75 C 8.722656 -11.019531 8.238281 -11.523438 7.925781 -12.332031 C 7.613281 -13.140625 7.625 -14.199219 7.878906 -15.570312 C 8.070312 -16.863281 8.585938 -18.40625 9.472656 -20.351562 C 10.371094 -22.222656 11.648438 -24.425781 13.3125 -26.957031 C 14.023438 -28.035156 14.738281 -29.109375 15.589844 -30.203125 C 16.375 -31.285156 17.242188 -32.238281 18.113281 -33.191406 C 18.921875 -34.070312 19.816406 -34.8125 20.804688 -35.359375 C 21.726562 -35.894531 22.753906 -36.164062 23.863281 -36.300781 C 24.496094 -36.308594 25.007812 -36.160156 25.398438 -35.855469 C 25.730469 -35.472656 25.996094 -35.011719 26.214844 -34.40625 C 26.359375 -33.789062 26.445312 -33.09375 26.410156 -32.242188 C 26.375 -31.394531 26.335938 -30.542969 26.171875 -29.605469 L 26.242188 -29.613281 L 20.253906 -18.71875 C 19.800781 -17.816406 19.148438 -16.820312 18.433594 -15.746094 C 17.652344 -14.660156 16.789062 -13.636719 15.84375 -12.746094 C 14.835938 -11.773438 13.792969 -11.082031 12.714844 -10.667969 C 11.578125 -10.171875 10.449219 -10.175781 9.390625 -10.75 Z M 9.390625 -10.75 "/></g></g></g><g fill="#ffde59" fill-opacity="1"><g transform="translate(216.66674, 247.950248)"><g><path d="M 3.316406 -0.550781 C 5.035156 -0.339844 6.703125 -0.546875 8.386719 -1.175781 C 10.070312 -1.808594 11.730469 -2.648438 13.347656 -3.835938 C 14.902344 -4.941406 16.363281 -6.25 17.804688 -7.699219 C 19.25 -9.148438 20.605469 -10.726562 21.804688 -12.425781 C 22.945312 -14.046875 24.007812 -15.726562 25 -17.402344 C 25.921875 -19.066406 26.722656 -20.578125 27.382812 -22.070312 C 24.617188 -18.203125 22 -15.410156 19.671875 -13.710938 C 17.34375 -12.015625 15.328125 -11.199219 13.695312 -11.28125 C 12.003906 -11.285156 10.910156 -12.136719 10.273438 -13.890625 C 9.640625 -15.574219 9.695312 -17.980469 10.449219 -21.035156 C 11.164062 -23.800781 12.070312 -26.171875 13.097656 -28.132812 C 14.132812 -30.023438 15.210938 -31.566406 16.324219 -32.832031 C 17.375 -34.019531 18.402344 -34.851562 19.460938 -35.40625 C 20.519531 -35.957031 21.398438 -36.277344 22.152344 -36.441406 C 22.710938 -36.511719 23.210938 -36.433594 23.601562 -36.128906 C 23.921875 -35.816406 24.113281 -35.414062 24.113281 -34.851562 C 24.042969 -34.277344 23.851562 -33.550781 23.457031 -32.726562 C 23.066406 -31.902344 22.398438 -31.042969 21.519531 -30.160156 C 21.207031 -29.835938 20.816406 -29.578125 20.433594 -29.25 C 20.171875 -29.074219 19.921875 -28.832031 19.660156 -28.660156 C 19.398438 -28.488281 19.214844 -28.253906 19.023438 -28.085938 C 18.589844 -27.609375 18.292969 -27.152344 18.136719 -26.707031 C 17.910156 -26.257812 18.039062 -25.78125 18.457031 -25.265625 L 18.328125 -25.179688 C 18.671875 -24.660156 19.195312 -24.441406 20.035156 -24.476562 C 20.878906 -24.507812 21.730469 -25.035156 22.730469 -26.078125 C 23.605469 -26.960938 24.3125 -28.105469 24.914062 -29.519531 C 25.523438 -30.863281 25.914062 -32.253906 26.160156 -33.691406 C 26.371094 -35.410156 26.261719 -36.878906 25.6875 -38.078125 C 25.117188 -39.277344 23.988281 -39.84375 22.375 -39.785156 C 20.003906 -39.5625 17.703125 -38.785156 15.601562 -37.535156 C 13.5 -36.289062 11.5 -34.773438 9.746094 -33.003906 C 7.925781 -31.160156 6.335938 -29.199219 4.902344 -27.117188 C 3.472656 -24.96875 2.378906 -23 1.472656 -21.195312 C 0.167969 -18.636719 -0.863281 -16.113281 -1.542969 -13.628906 C -2.292969 -11.140625 -2.511719 -8.925781 -2.203125 -6.992188 C -1.929688 -4.769531 -1.238281 -3.160156 -0.265625 -2.152344 C 0.703125 -1.144531 1.894531 -0.65625 3.316406 -0.550781 Z M 3.316406 -0.550781 "/></g></g></g><g fill="#ffde59" fill-opacity="1"><g transform="translate(241.529116, 244.879534)"><g><path d="M -0.585938 -15.582031 L -9.167969 0.566406 L 1.320312 -0.726562 L 8.917969 -15.132812 C 9.710938 -11 10.855469 -8.039062 12.28125 -6.171875 C 13.644531 -4.292969 15.257812 -3.222656 16.984375 -2.945312 C 18.648438 -2.585938 20.4375 -2.949219 22.28125 -4.019531 C 24.121094 -5.09375 25.988281 -6.523438 27.808594 -8.371094 C 29.5625 -10.136719 31.214844 -12.175781 32.761719 -14.484375 C 34.3125 -16.789062 35.652344 -19.070312 36.714844 -21.316406 C 36.148438 -20.753906 35.652344 -20.199219 35.148438 -19.714844 C 34.652344 -19.160156 34.160156 -18.605469 33.730469 -18.058594 C 32.878906 -16.964844 31.949219 -15.933594 30.925781 -15.101562 C 29.90625 -14.199219 28.785156 -13.570312 27.554688 -13.273438 C 26.328125 -12.914062 24.765625 -13 23.003906 -13.558594 C 21.617188 -13.953125 20.34375 -14.570312 19.171875 -15.484375 C 18.007812 -16.328125 17.039062 -17.335938 16.191406 -18.5 C 16.816406 -18.578125 17.632812 -18.820312 18.570312 -19.21875 C 20.375 -20.003906 22.496094 -21.113281 24.839844 -22.671875 C 25.953125 -23.371094 27.308594 -24.386719 28.988281 -25.652344 C 30.59375 -26.90625 31.976562 -28.277344 33.203125 -29.769531 C 34.367188 -31.179688 35.125 -32.472656 35.542969 -33.652344 C 35.960938 -34.832031 35.980469 -35.824219 35.667969 -36.628906 C 35.289062 -37.429688 34.726562 -37.996094 33.832031 -38.378906 C 32.9375 -38.761719 31.863281 -38.910156 30.542969 -38.746094 C 29.222656 -38.585938 27.738281 -38.046875 26.007812 -37.199219 C 23.75 -36.074219 21.671875 -34.621094 19.777344 -32.835938 C 17.882812 -31.050781 16.195312 -29.289062 14.789062 -27.5625 L 14.726562 -27.488281 L 20.578125 -38.363281 C 21.019531 -38.769531 21.53125 -39.1875 22.105469 -39.679688 C 22.679688 -40.175781 23.324219 -40.675781 23.957031 -41.25 C 24.53125 -41.742188 25.164062 -42.3125 25.800781 -42.886719 C 26.433594 -43.457031 27.136719 -44.039062 27.835938 -44.6875 C 29.164062 -45.910156 30.554688 -47.210938 31.9375 -48.582031 C 33.320312 -49.949219 34.554688 -51.371094 35.769531 -52.933594 C 36.929688 -54.414062 37.945312 -55.878906 38.886719 -57.40625 C 39.753906 -58.925781 40.355469 -60.339844 40.75 -61.726562 C 41.082031 -63.035156 41.136719 -64.3125 40.929688 -65.414062 C 40.652344 -66.511719 40.039062 -67.492188 38.945312 -68.34375 C 38.183594 -68.8125 37.289062 -69.195312 36.28125 -69.355469 C 35.273438 -69.511719 34.15625 -69.445312 32.992188 -69.160156 C 31.765625 -68.796875 30.636719 -68.234375 29.472656 -67.386719 C 28.308594 -66.535156 27.316406 -65.425781 26.429688 -64.046875 C 24.777344 -61.445312 23.125 -58.84375 21.609375 -56.261719 C 20.09375 -53.675781 18.519531 -51.011719 17.023438 -48.289062 C 13.953125 -42.902344 10.957031 -37.457031 8.03125 -32.019531 C 5.117188 -26.511719 2.269531 -21.011719 -0.585938 -15.582031 Z M 21.746094 -42.597656 L 34.511719 -63.707031 C 34.859375 -64.3125 35.371094 -64.730469 35.910156 -64.9375 C 36.457031 -65.074219 36.882812 -65.058594 37.332031 -64.832031 C 37.644531 -64.585938 37.976562 -64.203125 38.183594 -63.667969 C 38.390625 -63.128906 38.40625 -62.425781 38.300781 -61.566406 C 38.125 -60.699219 37.691406 -59.65625 37.125 -58.527344 C 36.566406 -57.332031 35.671875 -56.023438 34.507812 -54.609375 C 33.53125 -53.359375 32.410156 -52.164062 31.226562 -50.890625 C 29.976562 -49.609375 28.785156 -48.402344 27.585938 -47.265625 C 26.457031 -46.140625 25.371094 -45.230469 24.34375 -44.398438 C 23.320312 -43.566406 22.40625 -42.960938 21.746094 -42.597656 Z M 9.554688 -16.835938 L 12.472656 -22.34375 L 15.480469 -25.394531 C 16.042969 -25.957031 16.609375 -26.519531 17.234375 -27.160156 C 17.871094 -27.734375 18.433594 -28.296875 19.0625 -28.9375 C 20.261719 -30.074219 21.417969 -30.992188 22.527344 -31.695312 C 23.640625 -32.394531 24.519531 -32.714844 25.109375 -32.503906 L 25.117188 -32.4375 C 26.078125 -32.0625 26.503906 -31.480469 26.3125 -30.75 C 26.128906 -29.953125 25.535156 -29.03125 24.667969 -28.078125 C 23.738281 -27.046875 22.597656 -25.992188 21.183594 -24.898438 C 19.773438 -23.738281 18.347656 -22.714844 16.855469 -21.683594 C 15.300781 -20.574219 13.933594 -19.632812 12.632812 -18.765625 C 11.328125 -17.898438 10.277344 -17.277344 9.554688 -16.835938 Z M 9.554688 -16.835938 "/></g></g></g></svg>